<mxfile host="65bd71144e">
    <diagram id="hP9pHg5yxiXs1wd25evL" name="Page-1">
        <mxGraphModel dx="1158" dy="492" grid="1" gridSize="10" guides="1" tooltips="1" connect="1" arrows="1" fold="1" page="1" pageScale="1" pageWidth="1100" pageHeight="850" math="0" shadow="0">
            <root>
                <mxCell id="0"/>
                <mxCell id="1" parent="0"/>
                <mxCell id="3" value="Определить, присутствует ли в заданном массиве, некоторое число" style="rounded=1;whiteSpace=wrap;html=1;" parent="1" vertex="1">
                    <mxGeometry x="10" y="10" width="120" height="60" as="geometry"/>
                </mxCell>
                <mxCell id="83" value="" style="edgeStyle=none;html=1;" parent="1" source="4" target="78" edge="1">
                    <mxGeometry relative="1" as="geometry"/>
                </mxCell>
                <mxCell id="4" value="Start" style="ellipse;whiteSpace=wrap;html=1;" parent="1" vertex="1">
                    <mxGeometry x="490.5" y="10" width="120" height="60" as="geometry"/>
                </mxCell>
                <mxCell id="82" style="edgeStyle=none;html=1;entryX=0.5;entryY=0;entryDx=0;entryDy=0;" parent="1" source="5" target="17" edge="1">
                    <mxGeometry relative="1" as="geometry"/>
                </mxCell>
                <mxCell id="5" value="stringNumber" style="shape=parallelogram;perimeter=parallelogramPerimeter;whiteSpace=wrap;html=1;fixedSize=1;" parent="1" vertex="1">
                    <mxGeometry x="1355" y="270" width="120" height="60" as="geometry"/>
                </mxCell>
                <mxCell id="53" value="" style="edgeStyle=none;html=1;" parent="1" source="11" target="20" edge="1">
                    <mxGeometry relative="1" as="geometry"/>
                </mxCell>
                <mxCell id="11" value="intNumber = Conver(stringNumber)" style="whiteSpace=wrap;html=1;" parent="1" vertex="1">
                    <mxGeometry x="1310" y="520" width="210" height="55" as="geometry"/>
                </mxCell>
                <mxCell id="52" value="" style="edgeStyle=none;html=1;" parent="1" source="17" target="11" edge="1">
                    <mxGeometry relative="1" as="geometry"/>
                </mxCell>
                <mxCell id="17" value="try" style="whiteSpace=wrap;html=1;" parent="1" vertex="1">
                    <mxGeometry x="1355" y="410" width="120" height="40" as="geometry"/>
                </mxCell>
                <mxCell id="30" value="false" style="edgeStyle=none;html=1;" parent="1" source="20" target="29" edge="1">
                    <mxGeometry relative="1" as="geometry"/>
                </mxCell>
                <mxCell id="41" value="true" style="edgeStyle=none;html=1;entryX=0;entryY=0.5;entryDx=0;entryDy=0;" parent="1" source="20" target="26" edge="1">
                    <mxGeometry relative="1" as="geometry"/>
                </mxCell>
                <mxCell id="20" value="Excaption" style="rhombus;whiteSpace=wrap;html=1;" parent="1" vertex="1">
                    <mxGeometry x="1375" y="652.5" width="80" height="80" as="geometry"/>
                </mxCell>
                <mxCell id="49" value="false" style="edgeStyle=none;html=1;entryX=1;entryY=0.5;entryDx=0;entryDy=0;" parent="1" source="22" target="5" edge="1">
                    <mxGeometry relative="1" as="geometry">
                        <mxPoint x="1505" y="300" as="targetPoint"/>
                        <Array as="points">
                            <mxPoint x="1990" y="1154"/>
                            <mxPoint x="1990" y="300"/>
                        </Array>
                    </mxGeometry>
                </mxCell>
                <mxCell id="55" value="yes" style="edgeStyle=none;html=1;" parent="1" source="22" target="54" edge="1">
                    <mxGeometry relative="1" as="geometry"/>
                </mxCell>
                <mxCell id="22" value="intNumber &amp;lt; 0 || intNumber &amp;gt; 10000" style="rhombus;whiteSpace=wrap;html=1;" parent="1" vertex="1">
                    <mxGeometry x="1685" y="1100" width="240" height="107.5" as="geometry"/>
                </mxCell>
                <mxCell id="42" style="edgeStyle=none;html=1;" parent="1" source="26" target="22" edge="1">
                    <mxGeometry relative="1" as="geometry"/>
                </mxCell>
                <mxCell id="26" value="Print Incorrect" style="shape=document;whiteSpace=wrap;html=1;boundedLbl=1;" parent="1" vertex="1">
                    <mxGeometry x="1745" y="652.5" width="120" height="80" as="geometry"/>
                </mxCell>
                <mxCell id="32" value="true" style="edgeStyle=none;html=1;" parent="1" source="29" target="31" edge="1">
                    <mxGeometry relative="1" as="geometry"/>
                </mxCell>
                <mxCell id="38" value="false" style="edgeStyle=none;html=1;" parent="1" source="29" target="37" edge="1">
                    <mxGeometry relative="1" as="geometry"/>
                </mxCell>
                <mxCell id="29" value="IntNumber &amp;lt; 1" style="rhombus;whiteSpace=wrap;html=1;" parent="1" vertex="1">
                    <mxGeometry x="1360" y="812.5" width="110" height="87.5" as="geometry"/>
                </mxCell>
                <mxCell id="44" style="edgeStyle=none;html=1;entryX=0;entryY=0.5;entryDx=0;entryDy=0;" parent="1" source="31" target="22" edge="1">
                    <mxGeometry relative="1" as="geometry">
                        <mxPoint x="1447" y="1210" as="targetPoint"/>
                        <Array as="points">
                            <mxPoint x="1415" y="1154"/>
                        </Array>
                    </mxGeometry>
                </mxCell>
                <mxCell id="31" value="Print Array cannot be less than 1" style="shape=document;whiteSpace=wrap;html=1;boundedLbl=1;" parent="1" vertex="1">
                    <mxGeometry x="1355" y="983.75" width="120" height="80" as="geometry"/>
                </mxCell>
                <mxCell id="40" value="true" style="edgeStyle=none;html=1;" parent="1" source="37" target="39" edge="1">
                    <mxGeometry relative="1" as="geometry"/>
                </mxCell>
                <mxCell id="43" value="false" style="edgeStyle=none;html=1;" parent="1" source="37" edge="1">
                    <mxGeometry relative="1" as="geometry">
                        <mxPoint x="1805" y="856.25" as="targetPoint"/>
                    </mxGeometry>
                </mxCell>
                <mxCell id="37" value="IntNumber &amp;gt; 10000" style="rhombus;whiteSpace=wrap;html=1;" parent="1" vertex="1">
                    <mxGeometry x="1545" y="812.5" width="125" height="87.5" as="geometry"/>
                </mxCell>
                <mxCell id="45" style="edgeStyle=none;html=1;" parent="1" source="39" edge="1">
                    <mxGeometry relative="1" as="geometry">
                        <mxPoint x="1607.5" y="1150" as="targetPoint"/>
                    </mxGeometry>
                </mxCell>
                <mxCell id="39" value="Print Array very more" style="shape=document;whiteSpace=wrap;html=1;boundedLbl=1;" parent="1" vertex="1">
                    <mxGeometry x="1547.5" y="983.75" width="120" height="80" as="geometry"/>
                </mxCell>
                <mxCell id="48" value="" style="edgeStyle=none;html=1;entryX=0.5;entryY=0;entryDx=0;entryDy=0;" parent="1" source="46" target="5" edge="1">
                    <mxGeometry relative="1" as="geometry">
                        <mxPoint x="1415" y="260" as="targetPoint"/>
                    </mxGeometry>
                </mxCell>
                <mxCell id="46" value="intNumber = 0" style="whiteSpace=wrap;html=1;" parent="1" vertex="1">
                    <mxGeometry x="1355" y="150" width="120" height="40" as="geometry"/>
                </mxCell>
                <mxCell id="60" value="" style="edgeStyle=none;html=1;" parent="1" source="51" target="59" edge="1">
                    <mxGeometry relative="1" as="geometry"/>
                </mxCell>
                <mxCell id="51" value="arrayLength = TestNumber(maxArrayLength)" style="shape=process;whiteSpace=wrap;html=1;backgroundOutline=1;" parent="1" vertex="1">
                    <mxGeometry x="448.81" y="449.38" width="204.37" height="40" as="geometry"/>
                </mxCell>
                <mxCell id="54" value="Return intNumber" style="ellipse;whiteSpace=wrap;html=1;" parent="1" vertex="1">
                    <mxGeometry x="1745" y="1311.25" width="120" height="60" as="geometry"/>
                </mxCell>
                <mxCell id="62" value="" style="edgeStyle=none;html=1;" parent="1" source="59" target="61" edge="1">
                    <mxGeometry relative="1" as="geometry"/>
                </mxCell>
                <mxCell id="59" value="array[arrayLength]" style="whiteSpace=wrap;html=1;" parent="1" vertex="1">
                    <mxGeometry x="491" y="564.38" width="120" height="45" as="geometry"/>
                </mxCell>
                <mxCell id="87" value="" style="edgeStyle=none;html=1;" parent="1" source="61" target="86" edge="1">
                    <mxGeometry relative="1" as="geometry"/>
                </mxCell>
                <mxCell id="61" value="array[] = Randomizer(array)" style="shape=process;whiteSpace=wrap;html=1;backgroundOutline=1;" parent="1" vertex="1">
                    <mxGeometry x="454.75" y="684.38" width="192.5" height="45" as="geometry"/>
                </mxCell>
                <mxCell id="67" value="" style="edgeStyle=none;html=1;" parent="1" source="63" target="66" edge="1">
                    <mxGeometry relative="1" as="geometry"/>
                </mxCell>
                <mxCell id="63" value="Randomizer(array[])" style="ellipse;whiteSpace=wrap;html=1;" parent="1" vertex="1">
                    <mxGeometry x="2690" y="10" width="120" height="60" as="geometry"/>
                </mxCell>
                <mxCell id="65" value="" style="edgeStyle=none;html=1;" parent="1" source="64" target="46" edge="1">
                    <mxGeometry relative="1" as="geometry"/>
                </mxCell>
                <mxCell id="64" value="TestNumber(maxNumber)" style="ellipse;whiteSpace=wrap;html=1;" parent="1" vertex="1">
                    <mxGeometry x="1322.5" y="20" width="185" height="50" as="geometry"/>
                </mxCell>
                <mxCell id="69" value="true" style="edgeStyle=none;html=1;" parent="1" source="66" target="68" edge="1">
                    <mxGeometry relative="1" as="geometry"/>
                </mxCell>
                <mxCell id="72" value="false" style="edgeStyle=none;html=1;" parent="1" source="66" target="71" edge="1">
                    <mxGeometry relative="1" as="geometry"/>
                </mxCell>
                <mxCell id="66" value="i = 0; i &amp;lt; array.Length; i++" style="shape=hexagon;perimeter=hexagonPerimeter2;whiteSpace=wrap;html=1;fixedSize=1;" parent="1" vertex="1">
                    <mxGeometry x="2665" y="140" width="170" height="60" as="geometry"/>
                </mxCell>
                <mxCell id="70" style="edgeStyle=none;html=1;entryX=1;entryY=0.5;entryDx=0;entryDy=0;" parent="1" source="68" target="66" edge="1">
                    <mxGeometry relative="1" as="geometry">
                        <Array as="points">
                            <mxPoint x="2920" y="310"/>
                            <mxPoint x="2920" y="170"/>
                        </Array>
                    </mxGeometry>
                </mxCell>
                <mxCell id="68" value="array[i] =&amp;nbsp; Random(0, 10)" style="whiteSpace=wrap;html=1;" parent="1" vertex="1">
                    <mxGeometry x="2632.5" y="280" width="235" height="60" as="geometry"/>
                </mxCell>
                <mxCell id="71" value="Return array[i]" style="ellipse;whiteSpace=wrap;html=1;" parent="1" vertex="1">
                    <mxGeometry x="2440" y="140" width="120" height="60" as="geometry"/>
                </mxCell>
                <mxCell id="91" value="" style="edgeStyle=none;html=1;" parent="1" source="73" target="90" edge="1">
                    <mxGeometry relative="1" as="geometry"/>
                </mxCell>
                <mxCell id="73" value="LookingForANumberInAnArray(array, digit)" style="shape=process;whiteSpace=wrap;html=1;backgroundOutline=1;" parent="1" vertex="1">
                    <mxGeometry x="398.5" y="1030.63" width="304" height="50" as="geometry"/>
                </mxCell>
                <mxCell id="116" value="" style="edgeStyle=none;html=1;" parent="1" source="78" target="114" edge="1">
                    <mxGeometry relative="1" as="geometry"/>
                </mxCell>
                <mxCell id="78" value="maxArrayLength = 100000&lt;br&gt;maxDigit = 9" style="whiteSpace=wrap;html=1;" parent="1" vertex="1">
                    <mxGeometry x="469.13" y="140" width="163.75" height="60" as="geometry"/>
                </mxCell>
                <mxCell id="89" value="" style="edgeStyle=none;html=1;" parent="1" source="84" target="73" edge="1">
                    <mxGeometry relative="1" as="geometry"/>
                </mxCell>
                <mxCell id="84" value="digit = TestNumber(digit)" style="shape=process;whiteSpace=wrap;html=1;backgroundOutline=1;" parent="1" vertex="1">
                    <mxGeometry x="454.74" y="909.38" width="192.5" height="45" as="geometry"/>
                </mxCell>
                <mxCell id="88" value="" style="edgeStyle=none;html=1;" parent="1" source="86" target="84" edge="1">
                    <mxGeometry relative="1" as="geometry"/>
                </mxCell>
                <mxCell id="86" value="maxDigit = 9" style="whiteSpace=wrap;html=1;" parent="1" vertex="1">
                    <mxGeometry x="490.5" y="811.88" width="120" height="37.5" as="geometry"/>
                </mxCell>
                <mxCell id="101" value="" style="edgeStyle=none;html=1;" parent="1" source="90" target="100" edge="1">
                    <mxGeometry relative="1" as="geometry"/>
                </mxCell>
                <mxCell id="90" value="PrintArray(array)" style="shape=process;whiteSpace=wrap;html=1;backgroundOutline=1;" parent="1" vertex="1">
                    <mxGeometry x="468.5" y="1149.38" width="164" height="40" as="geometry"/>
                </mxCell>
                <mxCell id="94" value="" style="edgeStyle=none;html=1;" parent="1" source="92" target="93" edge="1">
                    <mxGeometry relative="1" as="geometry"/>
                </mxCell>
                <mxCell id="92" value="PrintArray(arra[])" style="ellipse;whiteSpace=wrap;html=1;" parent="1" vertex="1">
                    <mxGeometry x="2687.5" y="1240" width="120" height="60" as="geometry"/>
                </mxCell>
                <mxCell id="96" value="true" style="edgeStyle=none;html=1;" parent="1" source="93" target="95" edge="1">
                    <mxGeometry relative="1" as="geometry"/>
                </mxCell>
                <mxCell id="99" value="false" style="edgeStyle=none;html=1;" parent="1" source="93" target="98" edge="1">
                    <mxGeometry relative="1" as="geometry"/>
                </mxCell>
                <mxCell id="93" value="i = 0; i &amp;lt; array.Length; i++" style="shape=hexagon;perimeter=hexagonPerimeter2;whiteSpace=wrap;html=1;fixedSize=1;" parent="1" vertex="1">
                    <mxGeometry x="2662.5" y="1370" width="170" height="80" as="geometry"/>
                </mxCell>
                <mxCell id="97" style="edgeStyle=none;html=1;entryX=1;entryY=0.5;entryDx=0;entryDy=0;" parent="1" source="95" target="93" edge="1">
                    <mxGeometry relative="1" as="geometry">
                        <Array as="points">
                            <mxPoint x="2867.5" y="1570"/>
                            <mxPoint x="2868" y="1410"/>
                        </Array>
                    </mxGeometry>
                </mxCell>
                <mxCell id="95" value="Print array" style="shape=document;whiteSpace=wrap;html=1;boundedLbl=1;" parent="1" vertex="1">
                    <mxGeometry x="2687.5" y="1530" width="120" height="80" as="geometry"/>
                </mxCell>
                <mxCell id="98" value="End" style="ellipse;whiteSpace=wrap;html=1;" parent="1" vertex="1">
                    <mxGeometry x="2457.5" y="1380" width="120" height="60" as="geometry"/>
                </mxCell>
                <mxCell id="100" value="End" style="ellipse;whiteSpace=wrap;html=1;" parent="1" vertex="1">
                    <mxGeometry x="490.5" y="1263.13" width="120" height="60" as="geometry"/>
                </mxCell>
                <mxCell id="104" value="" style="edgeStyle=none;html=1;" parent="1" source="102" target="103" edge="1">
                    <mxGeometry relative="1" as="geometry"/>
                </mxCell>
                <mxCell id="102" value="&lt;span&gt;LookingForANumberInAnArray(array, digit)&lt;/span&gt;" style="ellipse;whiteSpace=wrap;html=1;" parent="1" vertex="1">
                    <mxGeometry x="2622.5" y="575" width="245" height="60" as="geometry"/>
                </mxCell>
                <mxCell id="106" value="true" style="edgeStyle=none;html=1;" parent="1" source="103" target="105" edge="1">
                    <mxGeometry relative="1" as="geometry"/>
                </mxCell>
                <mxCell id="113" value="false" style="edgeStyle=none;html=1;" parent="1" source="103" target="112" edge="1">
                    <mxGeometry relative="1" as="geometry"/>
                </mxCell>
                <mxCell id="103" value="i = 0; i &amp;lt; array.Length; i++" style="shape=hexagon;perimeter=hexagonPerimeter2;whiteSpace=wrap;html=1;fixedSize=1;" parent="1" vertex="1">
                    <mxGeometry x="2662.5" y="717.5" width="165" height="50" as="geometry"/>
                </mxCell>
                <mxCell id="108" value="false" style="edgeStyle=none;html=1;entryX=1;entryY=0.5;entryDx=0;entryDy=0;" parent="1" source="105" target="103" edge="1">
                    <mxGeometry relative="1" as="geometry">
                        <Array as="points">
                            <mxPoint x="2870" y="885"/>
                            <mxPoint x="2870" y="743"/>
                        </Array>
                    </mxGeometry>
                </mxCell>
                <mxCell id="110" value="true" style="edgeStyle=none;html=1;" parent="1" source="105" target="109" edge="1">
                    <mxGeometry relative="1" as="geometry"/>
                </mxCell>
                <mxCell id="105" value="array[i] == digit" style="rhombus;whiteSpace=wrap;html=1;" parent="1" vertex="1">
                    <mxGeometry x="2682.5" y="845" width="125" height="82.5" as="geometry"/>
                </mxCell>
                <mxCell id="111" style="edgeStyle=none;html=1;" parent="1" source="109" edge="1">
                    <mxGeometry relative="1" as="geometry">
                        <mxPoint x="2840" y="885" as="targetPoint"/>
                        <Array as="points">
                            <mxPoint x="2840" y="1049"/>
                        </Array>
                    </mxGeometry>
                </mxCell>
                <mxCell id="109" value="Print arra[i], digit" style="shape=document;whiteSpace=wrap;html=1;boundedLbl=1;" parent="1" vertex="1">
                    <mxGeometry x="2685" y="1008.75" width="120" height="80" as="geometry"/>
                </mxCell>
                <mxCell id="112" value="End" style="ellipse;whiteSpace=wrap;html=1;" parent="1" vertex="1">
                    <mxGeometry x="2440" y="712.5" width="120" height="60" as="geometry"/>
                </mxCell>
                <mxCell id="117" value="" style="edgeStyle=none;html=1;" parent="1" source="114" target="51" edge="1">
                    <mxGeometry relative="1" as="geometry"/>
                </mxCell>
                <mxCell id="114" value="writeLength = &quot;Enter array length&quot;,&lt;br&gt;writeDigit = &quot;Enter which digit need find in array&lt;span&gt;&quot;&lt;/span&gt;" style="whiteSpace=wrap;html=1;" parent="1" vertex="1">
                    <mxGeometry x="413.5" y="290" width="275" height="80" as="geometry"/>
                </mxCell>
            </root>
        </mxGraphModel>
    </diagram>
</mxfile>